<mxfile host="65bd71144e">
    <diagram name="Page-1" id="F7DJSDN21-6ArAo4oOun">
        <mxGraphModel dx="752" dy="614" grid="1" gridSize="10" guides="1" tooltips="1" connect="1" arrows="1" fold="1" page="1" pageScale="1" pageWidth="827" pageHeight="1169" math="0" shadow="0">
            <root>
                <mxCell id="0"/>
                <mxCell id="1" parent="0"/>
                <mxCell id="JSHWopGk9b5dcX67kL73-1" value="" style="verticalLabelPosition=bottom;html=1;verticalAlign=top;align=center;strokeColor=none;fillColor=#00BEF2;shape=mxgraph.azure.storage_blob;" parent="1" vertex="1">
                    <mxGeometry x="170" y="117.5" width="50" height="45" as="geometry"/>
                </mxCell>
                <mxCell id="JSHWopGk9b5dcX67kL73-2" value="" style="image;aspect=fixed;html=1;points=[];align=center;fontSize=12;image=img/lib/azure2/compute/Function_Apps.svg;" parent="1" vertex="1">
                    <mxGeometry x="400" y="110" width="68" height="60" as="geometry"/>
                </mxCell>
                <mxCell id="JSHWopGk9b5dcX67kL73-3" value="coral-club.com" style="ellipse;shape=cloud;whiteSpace=wrap;html=1;" parent="1" vertex="1">
                    <mxGeometry x="580" y="90" width="140" height="90" as="geometry"/>
                </mxCell>
                <mxCell id="JSHWopGk9b5dcX67kL73-4" style="edgeStyle=orthogonalEdgeStyle;rounded=0;orthogonalLoop=1;jettySize=auto;html=1;entryX=0.16;entryY=0.55;entryDx=0;entryDy=0;entryPerimeter=0;" parent="1" source="JSHWopGk9b5dcX67kL73-2" target="JSHWopGk9b5dcX67kL73-3" edge="1">
                    <mxGeometry relative="1" as="geometry"/>
                </mxCell>
                <mxCell id="JSHWopGk9b5dcX67kL73-5" value="Fetch reports" style="edgeLabel;html=1;align=center;verticalAlign=middle;resizable=0;points=[];" parent="JSHWopGk9b5dcX67kL73-4" vertex="1" connectable="0">
                    <mxGeometry x="-0.2075" y="1" relative="1" as="geometry">
                        <mxPoint as="offset"/>
                    </mxGeometry>
                </mxCell>
                <mxCell id="JSHWopGk9b5dcX67kL73-6" value="Store excel report" style="edgeStyle=orthogonalEdgeStyle;rounded=0;orthogonalLoop=1;jettySize=auto;html=1;entryX=1;entryY=0.5;entryDx=0;entryDy=0;entryPerimeter=0;" parent="1" source="JSHWopGk9b5dcX67kL73-2" target="JSHWopGk9b5dcX67kL73-1" edge="1">
                    <mxGeometry relative="1" as="geometry"/>
                </mxCell>
                <mxCell id="JSHWopGk9b5dcX67kL73-7" value="" style="image;aspect=fixed;html=1;points=[];align=center;fontSize=12;image=img/lib/azure2/databases/Data_Factory.svg;" parent="1" vertex="1">
                    <mxGeometry x="160" y="245" width="68" height="68" as="geometry"/>
                </mxCell>
                <mxCell id="JSHWopGk9b5dcX67kL73-11" value="Fetch downloaded report" style="edgeStyle=orthogonalEdgeStyle;rounded=0;orthogonalLoop=1;jettySize=auto;html=1;entryX=0.5;entryY=1;entryDx=0;entryDy=0;entryPerimeter=0;" parent="1" source="JSHWopGk9b5dcX67kL73-7" target="JSHWopGk9b5dcX67kL73-1" edge="1">
                    <mxGeometry relative="1" as="geometry">
                        <mxPoint x="260" y="186" as="targetPoint"/>
                    </mxGeometry>
                </mxCell>
                <mxCell id="JSHWopGk9b5dcX67kL73-12" value="Parse job" style="edgeStyle=orthogonalEdgeStyle;rounded=0;orthogonalLoop=1;jettySize=auto;html=1;entryX=-0.015;entryY=0.517;entryDx=0;entryDy=0;entryPerimeter=0;" parent="1" source="JSHWopGk9b5dcX67kL73-7" target="8" edge="1">
                    <mxGeometry relative="1" as="geometry">
                        <mxPoint x="377" y="279" as="targetPoint"/>
                    </mxGeometry>
                </mxCell>
                <mxCell id="JSHWopGk9b5dcX67kL73-14" value="Network tree" style="image;aspect=fixed;html=1;points=[];align=center;fontSize=12;image=img/lib/azure2/databases/SQL_Database.svg;" parent="1" vertex="1">
                    <mxGeometry x="480" y="386" width="48" height="64" as="geometry"/>
                </mxCell>
                <mxCell id="JSHWopGk9b5dcX67kL73-16" value="Daily points data" style="image;aspect=fixed;html=1;points=[];align=center;fontSize=12;image=img/lib/azure2/databases/SQL_Database.svg;" parent="1" vertex="1">
                    <mxGeometry x="280" y="386" width="48" height="64" as="geometry"/>
                </mxCell>
                <mxCell id="JSHWopGk9b5dcX67kL73-23" style="edgeStyle=orthogonalEdgeStyle;rounded=0;orthogonalLoop=1;jettySize=auto;html=1;" parent="1" source="JSHWopGk9b5dcX67kL73-21" target="JSHWopGk9b5dcX67kL73-2" edge="1">
                    <mxGeometry relative="1" as="geometry"/>
                </mxCell>
                <mxCell id="JSHWopGk9b5dcX67kL73-21" value="" style="verticalLabelPosition=bottom;html=1;verticalAlign=top;align=center;strokeColor=none;fillColor=#00BEF2;shape=mxgraph.azure.scheduler;pointerEvents=1;" parent="1" vertex="1">
                    <mxGeometry x="414" y="10" width="40" height="50" as="geometry"/>
                </mxCell>
                <mxCell id="JSHWopGk9b5dcX67kL73-24" style="edgeStyle=orthogonalEdgeStyle;rounded=0;orthogonalLoop=1;jettySize=auto;html=1;" parent="1" source="JSHWopGk9b5dcX67kL73-22" target="JSHWopGk9b5dcX67kL73-7" edge="1">
                    <mxGeometry relative="1" as="geometry"/>
                </mxCell>
                <mxCell id="JSHWopGk9b5dcX67kL73-22" value="" style="verticalLabelPosition=bottom;html=1;verticalAlign=top;align=center;strokeColor=none;fillColor=#00BEF2;shape=mxgraph.azure.scheduler;pointerEvents=1;" parent="1" vertex="1">
                    <mxGeometry x="50" y="254" width="40" height="50" as="geometry"/>
                </mxCell>
                <mxCell id="2" value="PowerBI report" style="aspect=fixed;html=1;points=[];align=center;image;fontSize=12;image=img/lib/azure2/general/Journey_Hub.svg;" parent="1" vertex="1">
                    <mxGeometry x="210" y="570" width="60" height="63" as="geometry"/>
                </mxCell>
                <mxCell id="3" value="Static Web App" style="aspect=fixed;html=1;points=[];align=center;image;fontSize=12;image=img/lib/azure2/preview/Static_Apps.svg;" parent="1" vertex="1">
                    <mxGeometry x="500" y="585" width="70" height="56.00000000000001" as="geometry"/>
                </mxCell>
                <mxCell id="9" style="edgeStyle=none;html=1;entryX=0.625;entryY=-0.016;entryDx=0;entryDy=0;entryPerimeter=0;" edge="1" parent="1" source="8" target="JSHWopGk9b5dcX67kL73-16">
                    <mxGeometry relative="1" as="geometry"/>
                </mxCell>
                <mxCell id="10" style="edgeStyle=none;html=1;" edge="1" parent="1" source="8" target="JSHWopGk9b5dcX67kL73-14">
                    <mxGeometry relative="1" as="geometry"/>
                </mxCell>
                <mxCell id="8" value="Excel 2 Parquet" style="image;aspect=fixed;html=1;points=[];align=center;fontSize=12;image=img/lib/azure2/compute/Function_Apps.svg;" vertex="1" parent="1">
                    <mxGeometry x="380" y="244" width="68" height="60" as="geometry"/>
                </mxCell>
            </root>
        </mxGraphModel>
    </diagram>
</mxfile>